/* XPM */
static char * bigimg08_xpm[] = {
"24 24 21 1",
" 	c none",
".	c #000080",
"X	c Black",
"o	c #0000cc",
"O	c #333366",
"+	c #6666cc",
"@	c Gray60",
"#	c #ccccff",
"$	c #996699",
"%	c #666699",
"&	c #ff33ff",
"*	c Gray100",
"=	c #cbcbcb",
"-	c #9999cc",
";	c #868686",
":	c #00ffcc",
">	c #66ffff",
",	c #33ffff",
"<	c #a0a0a4",
"1	c Gray59",
"2	c #b2b2b2",
"                        ",
"                        ",
"                        ",
"                        ",
"        ..........X     ",
"        .oooooo..OX     ",
"        .oooo..+@OX     ",
"        .oo..+#$%OX     ",
"     X &.o.*=-;%%OX     ",
"    XX  ..;*--%%%OX     ",
"   X:XXXX.;*--%%%OX     ",
"  X:>>>,>.;*<1%%%OX     ",
"   X,XXXX.;*--%%%OX     ",
"    XX  ..;*--%%%OX     ",
"     X  ..;*##%%%OX     ",
"        ..;*XX%%%OX     ",
"       &..;*<-%%%OX     ",
"        ..;*<2%%..X     ",
"         .;*<%..        ",
"         .;*..          ",
"         ...            ",
"                        ",
"                        ",
"                        "};
