/* XPM */
static char * bigimg04_xpm[] = {
"24 24 8 1",
" 	c none",
".	c #996666",
"X	c #cc0000",
"o	c #ff9933",
"O	c #ff6600",
"+	c Red",
"@	c #990000",
"#	c #cc3333",
"                        ",
"                        ",
"                        ",
"   .XX.                 ",
"   XoO+@           X    ",
"    XoO+@        X@     ",
"     XXo+@      X@      ",
"       XX+@    X@       ",
"         X+@  X@        ",
"          X+@X@         ",
"           X+@          ",
"          X+@+@         ",
"         X+@  +@        ",
"        X+@    +@       ",
"       XO@      +@      ",
"      XoX@       +@     ",
"     #o+@         +     ",
"    #oOX@          +    ",
"    #O+@                ",
"    #+@             +   ",
"     @                  ",
"                        ",
"                        ",
"                        "};
