/* XPM */
static char * bigimg09_xpm[]={
"24 24 59 1",
"R c #393c39",
"O c #414441",
"S c #4a484a",
"N c #4a4c4a",
"T c #525052",
"W c #525552",
"L c #5a595a",
"F c #5a5d5a",
"2 c #626162",
"r c #626562",
"m c #6a696a",
"n c #6a6d6a",
"H c #737173",
"s c #737573",
"l c #7b7573",
"G c #7b797b",
"q c #7b7d7b",
"Q c #7b817b",
"o c #838183",
"p c #838583",
"E c #8b898b",
"u c #8b8d8b",
"i c #949194",
"z c #949594",
"A c #9c999c",
"h c #9c9d9c",
"Z c #9ca19c",
"3 c #a4a1a4",
"K c #a4a5a4",
"k c #acaaac",
"g c #acaeac",
"0 c #acb2ac",
"I c #b4b2b4",
"U c #b4b6b4",
"M c #bdb6bd",
"y c #bdbabd",
"e c #bdbebd",
"1 c #bdbec5",
"d c #c5c2c5",
"X c #c5c6c5",
"t c #cdcacd",
"j c #cdcecd",
"D c #d5d2d5",
"f c #d5d6d5",
"4 c #d5d6de",
"c c #dedade",
"v c #dedede",
"x c #dee2de",
"V c #e6dede",
"w c #e6e2e6",
"b c #e6e6e6",
"Y c #e6e6ee",
"J c #eeeae6",
"a c #eeeaee",
"# c #eeeeee",
"P c #f6eeee",
"  c none",
"C c #ffffff",
"5 c #ffffff",
"                        ",
"         #abbba#        ",
"         acdedca        ",
"      bfghiiiiihgfb     ",
"    #ajklmnopqmrskja#   ",
"    atumhdvwxvfyzruta   ",
"   #fipAja5CCawfdiquf#  ",
"   wyrAw55CCwDDvbDEFyv  ",
"   dupeCCCCCtkDwawgGEe  ",
"   kHgcCCCCaIEjbJbthrK  ",
"   zLt#CCCafAGjwbbcMNi  ",
"   EODCCCPvzQuDwwwveRp  ",
"   uSjCC##DnTrUfwVvyRp  ",
"   zWXY##ajrOTZtvvfISi  ",
"   knKD#aavyIg0Xcc1z23  ",
"   duqIaabwcfDtDc43Hpd  ",
"   cg2uDwbwwwvvcfdoLgv  ",
"    jGmotvwvvvcfeG2HD   ",
"    v3s2qAgUyUkisWmAc   ",
"      iFOLsopoHTRTo     ",
"       iGmLWTTW2no      ",
"        I3iEppEzK       ",
"                        ",
"                        "};
