/* XPM */
static char * bigimg06_xpm[] = {
"24 24 8 1",
" 	c none",
".	c #3366ff",
"X	c #ccffff",
"o	c Black",
"O	c #99ffff",
"+	c #00ccff",
"@	c #33ccff",
"#	c #0099ff",
"                        ",
"                        ",
"                        ",
"                        ",
"                        ",
"           .            ",
"          .Xo           ",
"         .XO+o          ",
"        .XO++.o         ",
"       .XO@+++.o        ",
"      .XO++++##.o       ",
"     .XO++++####.o      ",
"    .XO@+++##.....o     ",
"   .ooooo+###.oooooo    ",
"        o####.o         ",
"        o.....o         ",
"        ooooooo         ",
"                        ",
"                        ",
"                        ",
"                        ",
"                        ",
"                        ",
"                        "};
