/* XPM */
static char * new_xpm[] = {
"16 16 10 1",
" 	c none",
".	c #979797",
"X	c Gray41",
"o	c #4c4c4c",
"O	c #f9f9f9",
"+	c Gray91",
"@	c Gray82",
"#	c #e2e2e2",
"$	c #dddddd",
"%	c #b4b4b4",
"  .XXXXXXXoooo  ",
"  o OOOOOOOO+X  ",
"  oO++++++++@X  ",
"  oO+++++++#@X  ",
"  oO++++++##@X  ",
"  oO+++++###@X  ",
"  oO++++####@X  ",
"  oO++++####@X  ",
"  oO+++#####@X  ",
"  oO++######@X  ",
"  oO++#####$@X  ",
"  oO+#####$$@X  ",
"  oO#####$$$@X  ",
"  oO####$$$$@X  ",
"  o#@@@@@@@@%X  ",
"  oXXXXXXXXXXo  "};
