/* XPM */
static char *schedule_xpm[] = {
/* columns rows colors chars-per-pixel */
"16 16 119 2",
"E  c #CACACA",
"W  c #D9D9D9",
"m  c #F2F3F3",
"n  c #1E1E1E",
"o. c #E8E8E8",
"L  c #DEDDDD",
"5  c #F7F7F7",
"q  c #3C3C3C",
"/  c #4B4B4B",
"%  c #5A5A5A",
"K  c #B4B4B4",
"Z  c #171717",
"k  c #E1E1E1",
"I  c #262626",
"M  c #F0F0F0",
"   c none",
"<. c #444444",
">. c #808080",
"*. c #ADADAD",
"O. c #BCBCBC",
"R  c #CBCBCB",
"g  c #E4E5E5",
"_  c #DADADA",
"v  c #D0CFD0",
"N  c #EEEDED",
"&. c #4C4C4C",
"{  c #6A6A6A",
"@. c #797979",
";. c #C4C4C4",
"`  c #D3D3D4",
")  c #E2E2E1",
"3. c #E2E2E2",
"j  c #F1F1F0",
"y  c #F1F1F1",
"3  c #D8D7D8",
"x  c #E7E6E6",
"+  c #4A494A",
"B  c #727272",
"o  c #CCCCCC",
"Q  c #DBDBDB",
"G  c #EAEAEA",
"r  c #F9F9F9",
"'  c #3E3E3E",
"2. c #B6B6B6",
"C  c #E3E3E3",
"2  c #464646",
"w  c #828282",
"u  c #919191",
">  c #AFAFAF",
".  c #DCDCDC",
"S  c #EBEBEB",
"A  c #303030",
"=  c #FAFAFA",
"d  c #7B7B7B",
"!  c #99999A",
"<  c #B7B7B7",
"5. c #C6C6C6",
"P  c #D5D5D5",
"c  c #E4E4E4",
"}  c #DAD9D9",
"b  c #383837",
"h  c #F3F3F3",
"*  c #474747",
"+. c #565656",
"$. c #747474",
"|  c #CECECE",
"9  c #ECECEC",
"-. c #FBFBFB",
",  c #404040",
"~  c #5E5E5E",
"&  c #B8B8B8",
"(  c #E5E5E5",
"6  c #F4F4F4",
"$  c #484848",
",. c #575757",
"V  c #7F807F",
"O  c #5C5B5B",
"s  c #848484",
"#. c #939393",
"X  c #B1B1B1",
"7. c #CFCFCF",
"i  c #DEDEDE",
"-  c #F7F8F7",
"T  c #EDEDEC",
"F  c #EDEDED",
"X. c #FCFCFC",
" . c #505050",
"U  c #696A69",
"l  c #5F5F5F",
"#  c #6E6E6E",
"Y  c #AAAAAA",
"^  c #B9B9B9",
"6. c #C8C8C8",
"0  c #C8C8C9",
"=. c #E6E6E6",
";  c #F5F5F5",
"1. c #767676",
":. c #A3A3A3",
"p  c #E9EAE9",
"1  c #DFDFDF",
"7  c #DFDFE0",
"[  c #FDFDFD",
"@  c #6F6F6F",
"e  c #929192",
"4. c #C9C9C9",
"8. c #D8D8D8",
"a  c #E7E7E7",
"%. c #2C2C2C",
"t  c #F6F6F6",
"J  c #202120",
"8  c #D1D1D1",
"z  c #E0E0E0",
"4  c #F9FAF9",
":  c #EFEFEF",
"H  c #343434",
"D  c #EFEFF0",
"]  c #FEFEFE",
"f  c #434343",
".. c #616161",
/* pixels */
"                                ",
"            . X X .             ",
"        o O + @ # $ % o         ",
"      & * & = - ; : > , <       ",
"    1 2 3 4 5 6 7 8 9 0 q 1     ",
"    w e r t 6 y u i p a s d     ",
"    f g t h j k l z x c v b     ",
"    n ; m M N B V C C k i Z     ",
"    A S D F G H J K z L P I     ",
"    U Y T G a R E > W Q ! ~     ",
"    ^ / ( a c ) 1 . _ ` ' < ]   ",
"  [ F { % } k i . W |  ...y ]   ",
"  X.o.O.+.H @.#.u $.%.&.*.=.X.  ",
"  -.G ;.:.>.,.2 <. .1.#.2.3.r ] ",
"  [ ; G k Q 8 4.5.6.7.8.c y X.  ",
"    ] [ X.[ X.= = -.-.-.[ ] ]   "
};
