<?xml version="1.0" encoding="UTF-8" standalone="no"?>
<!-- Created with Inkscape (http://www.inkscape.org/) -->
<svg
   xmlns:dc="http://purl.org/dc/elements/1.1/"
   xmlns:cc="http://web.resource.org/cc/"
   xmlns:rdf="http://www.w3.org/1999/02/22-rdf-syntax-ns#"
   xmlns:svg="http://www.w3.org/2000/svg"
   xmlns="http://www.w3.org/2000/svg"
   xmlns:xlink="http://www.w3.org/1999/xlink"
   xmlns:sodipodi="http://sodipodi.sourceforge.net/DTD/sodipodi-0.dtd"
   xmlns:inkscape="http://www.inkscape.org/namespaces/inkscape"
   width="200.00005"
   height="199.99971"
   id="svg49280"
   sodipodi:version="0.32"
   inkscape:version="0.44"
   version="1.0"
   sodipodi:docbase="C:\Documents and Settings\szabados\Dokumentumok\Rajzok\wxdownload\logo"
   sodipodi:docname="logosmall.svg">
  <defs
     id="defs49282">
    <linearGradient
       inkscape:collect="always"
       xlink:href="#linearGradient17569"
       id="linearGradient17357"
       gradientUnits="userSpaceOnUse"
       x1="133.89352"
       y1="-1673.4144"
       x2="90.05291"
       y2="-1673.4144" />
    <linearGradient
       id="linearGradient17569">
      <stop
         style="stop-color:#ff1919;stop-opacity:1;"
         offset="0"
         id="stop17571" />
      <stop
         style="stop-color:#a10000;stop-opacity:1;"
         offset="1"
         id="stop17573" />
    </linearGradient>
    <radialGradient
       inkscape:collect="always"
       xlink:href="#linearGradient17569"
       id="radialGradient17355"
       gradientUnits="userSpaceOnUse"
       gradientTransform="matrix(1,0,0,0.79837,0,-324.8868)"
       cx="116.90135"
       cy="-1611.2986"
       fx="116.90135"
       fy="-1611.2986"
       r="77.803368" />
    <linearGradient
       inkscape:collect="always"
       xlink:href="#linearGradient8731"
       id="linearGradient17353"
       gradientUnits="userSpaceOnUse"
       gradientTransform="matrix(0.237348,0,0,0.857075,98.4208,-1220.271)"
       x1="321.85944"
       y1="-567.39343"
       x2="905.77063"
       y2="-306.83716" />
    <linearGradient
       id="linearGradient8731">
      <stop
         style="stop-color:#729fcf;stop-opacity:1;"
         offset="0"
         id="stop8733" />
      <stop
         style="stop-color:#224265;stop-opacity:1;"
         offset="1"
         id="stop8735" />
    </linearGradient>
    <linearGradient
       inkscape:collect="always"
       xlink:href="#linearGradient8731"
       id="linearGradient17351"
       gradientUnits="userSpaceOnUse"
       gradientTransform="matrix(0.271213,0,0,1.587497,105.1808,-964.4813)"
       x1="57.503651"
       y1="-350.23468"
       x2="-410.25897"
       y2="-508.98749" />
  </defs>
  <sodipodi:namedview
     id="base"
     pagecolor="#ffffff"
     bordercolor="#666666"
     borderopacity="1.0"
     inkscape:pageopacity="0.0"
     inkscape:pageshadow="2"
     inkscape:zoom="0.98602151"
     inkscape:cx="14.285714"
     inkscape:cy="98.865867"
     inkscape:document-units="px"
     inkscape:current-layer="layer1"
     inkscape:window-width="1024"
     inkscape:window-height="719"
     inkscape:window-x="-4"
     inkscape:window-y="-4" />
  <metadata
     id="metadata49285">
    <rdf:RDF>
      <cc:Work
         rdf:about="">
        <dc:format>image/svg+xml</dc:format>
        <dc:type
           rdf:resource="http://purl.org/dc/dcmitype/StillImage" />
      </cc:Work>
    </rdf:RDF>
  </metadata>
  <g
     inkscape:label="1. réteg"
     inkscape:groupmode="layer"
     id="layer1"
     transform="translate(-185.1004,-465.2996)">
    <g
       id="g17339"
       transform="matrix(1.022959,0,0,1.043864,165.5151,2247.276)">
      <rect
         style="fill:white;fill-opacity:1;fill-rule:nonzero;stroke:white;stroke-width:10.05485535;stroke-linecap:round;stroke-linejoin:round;stroke-miterlimit:4;stroke-dasharray:none;stroke-dashoffset:0;stroke-opacity:1"
         id="rect17341"
         width="185.35423"
         height="181.64189"
         x="24.22423"
         y="-1702.1195"
         rx="25.137138"
         ry="25.137138" />
      <rect
         ry="25.137138"
         rx="25.137138"
         y="-1702.1195"
         x="24.22423"
         height="181.64189"
         width="185.35423"
         id="rect17343"
         style="fill:url(#linearGradient17351);fill-opacity:1;fill-rule:nonzero;stroke:url(#linearGradient17353);stroke-width:10.05485535;stroke-linecap:round;stroke-linejoin:round;stroke-miterlimit:4;stroke-dasharray:none;stroke-dashoffset:0;stroke-opacity:1" />
      <rect
         ry="25.137138"
         rx="25.137138"
         y="-1702.1195"
         x="24.22423"
         height="181.64189"
         width="185.35423"
         id="rect17345"
         style="fill:none;fill-opacity:1;fill-rule:nonzero;stroke:black;stroke-width:4;stroke-linecap:round;stroke-linejoin:round;stroke-miterlimit:4;stroke-dasharray:none;stroke-dashoffset:0;stroke-opacity:1" />
      <path
         style="font-size:117.29698944px;font-style:normal;font-variant:normal;font-weight:bold;font-stretch:normal;text-align:start;line-height:100%;writing-mode:lr-tb;text-anchor:start;fill:none;fill-opacity:1;fill-rule:nonzero;stroke:black;stroke-width:7;stroke-linecap:round;stroke-linejoin:round;stroke-miterlimit:4;stroke-dasharray:none;stroke-dashoffset:0;stroke-opacity:1;font-family:Arial"
         d="M 61.354473,-1672.2829 L 40.229473,-1587.8454 L 68.729473,-1587.8454 C 72.091883,-1587.8454 76.285233,-1588.2039 81.291973,-1588.9079 C 90.596543,-1590.2371 97.866223,-1591.6885 103.10447,-1593.2517 C 105.44201,-1593.9454 107.74063,-1594.7533 110.01072,-1595.6579 L 98.698223,-1550.3142 L 125.07322,-1550.3142 L 125.41697,-1551.5017 L 125.79197,-1553.0329 L 127.29197,-1557.4704 C 128.30854,-1560.3627 129.69632,-1563.8265 131.41697,-1567.8142 C 134.07539,-1573.8374 140.09364,-1577.7359 149.47947,-1579.5329 C 153.93484,-1580.3944 161.46815,-1580.8141 172.10447,-1580.8142 L 177.51072,-1580.8142 L 179.63572,-1580.7204 L 183.38572,-1591.1579 L 139.38572,-1591.1579 C 137.66745,-1591.1579 136.82316,-1591.4851 136.82322,-1592.1892 C 136.82317,-1592.5017 136.97929,-1593.3112 137.29197,-1594.5642 L 143.13572,-1618.2517 L 143.60447,-1620.0017 L 143.72947,-1620.5954 C 144.2759,-1622.1584 145.77358,-1622.9391 148.19822,-1622.9392 L 190.63572,-1622.9392 L 193.57322,-1634.7829 L 148.97947,-1634.7829 C 149.83533,-1637.8334 150.26067,-1640.6792 150.26072,-1643.3142 C 150.2606,-1650.4304 148.07718,-1656.5435 143.69822,-1661.6267 C 137.59844,-1668.7429 128.27259,-1672.2828 115.76072,-1672.2829 L 96.416973,-1672.2829 L 93.260723,-1661.9704 C 94.198523,-1662.1278 95.649933,-1662.2204 97.604473,-1662.2204 C 104.40806,-1662.2203 109.71051,-1660.2786 113.54197,-1656.4079 C 117.37327,-1652.5371 119.29188,-1647.1803 119.29197,-1640.3767 C 119.29188,-1629.8191 115.61079,-1620.9292 108.26072,-1613.6579 C 101.92711,-1607.4031 93.254633,-1602.6465 82.229473,-1599.4392 C 80.117443,-1598.8139 78.246283,-1598.5016 76.604473,-1598.5017 C 75.509063,-1598.5016 74.418543,-1598.7526 73.323223,-1599.2204 C 71.993953,-1599.7693 71.430683,-1600.5476 71.666973,-1601.5642 L 89.260723,-1672.2829 L 61.354473,-1672.2829 z "
         id="path17347" />
      <path
         id="path17349"
         d="M 61.354473,-1672.2829 L 40.229473,-1587.8454 L 68.729473,-1587.8454 C 72.091883,-1587.8454 76.285233,-1588.2039 81.291973,-1588.9079 C 90.596543,-1590.2371 97.866223,-1591.6885 103.10447,-1593.2517 C 105.44201,-1593.9454 107.74063,-1594.7533 110.01072,-1595.6579 L 98.698223,-1550.3142 L 125.07322,-1550.3142 L 125.41697,-1551.5017 L 125.79197,-1553.0329 L 127.29197,-1557.4704 C 128.30854,-1560.3627 129.69632,-1563.8265 131.41697,-1567.8142 C 134.07539,-1573.8374 140.09364,-1577.7359 149.47947,-1579.5329 C 153.93484,-1580.3944 161.46815,-1580.8141 172.10447,-1580.8142 L 177.51072,-1580.8142 L 179.63572,-1580.7204 L 183.38572,-1591.1579 L 139.38572,-1591.1579 C 137.66745,-1591.1579 136.82316,-1591.4851 136.82322,-1592.1892 C 136.82317,-1592.5017 136.97929,-1593.3112 137.29197,-1594.5642 L 143.13572,-1618.2517 L 143.60447,-1620.0017 L 143.72947,-1620.5954 C 144.2759,-1622.1584 145.77358,-1622.9391 148.19822,-1622.9392 L 190.63572,-1622.9392 L 193.57322,-1634.7829 L 148.97947,-1634.7829 C 149.83533,-1637.8334 150.26067,-1640.6792 150.26072,-1643.3142 C 150.2606,-1650.4304 148.07718,-1656.5435 143.69822,-1661.6267 C 137.59844,-1668.7429 128.27259,-1672.2828 115.76072,-1672.2829 L 96.416973,-1672.2829 L 93.260723,-1661.9704 C 94.198523,-1662.1278 95.649933,-1662.2204 97.604473,-1662.2204 C 104.40806,-1662.2203 109.71051,-1660.2786 113.54197,-1656.4079 C 117.37327,-1652.5371 119.29188,-1647.1803 119.29197,-1640.3767 C 119.29188,-1629.8191 115.61079,-1620.9292 108.26072,-1613.6579 C 101.92711,-1607.4031 93.254633,-1602.6465 82.229473,-1599.4392 C 80.117443,-1598.8139 78.246283,-1598.5016 76.604473,-1598.5017 C 75.509063,-1598.5016 74.418543,-1598.7526 73.323223,-1599.2204 C 71.993953,-1599.7693 71.430683,-1600.5476 71.666973,-1601.5642 L 89.260723,-1672.2829 L 61.354473,-1672.2829 z "
         style="font-size:117.29698944px;font-style:normal;font-variant:normal;font-weight:bold;font-stretch:normal;text-align:start;line-height:100%;writing-mode:lr-tb;text-anchor:start;fill:url(#radialGradient17355);fill-opacity:1;fill-rule:nonzero;stroke:url(#linearGradient17357);stroke-width:2.26298594;stroke-linecap:round;stroke-linejoin:round;stroke-miterlimit:4;stroke-dasharray:none;stroke-dashoffset:0;stroke-opacity:1;font-family:Arial" />
    </g>
  </g>
</svg>
