/* XPM */
static char * exit_xpm[] = {
"16 16 8 1",
" 	c none",
".	c Black",
"X	c #008400",
"o	c #000084",
"O	c Blue",
"+	c Cyan",
"@	c #848484",
"#	c #c6c6c6",
"                ",
"     ......     ",
"     .XXXX.     ",
"     ......     ",
"                ",
"   oooooooooo   ",
"   oOoO.+ + o   ",
"   ooOo. + +o   ",
"   oOoO.+ + o   ",
"   ooOo. + +o   ",
"   oOoO.    o   ",
"   ooOo.    o   ",
"   oOo..@   o   ",
"oooo..@@@   oooo",
"@@@@@@@@@@@ @ @@",
"@@@@@@@@@@ #@# #"};
