/* XPM */
static char * remove_xpm[] = {
"16 16 7 1",
" 	c none",
".	c #4c4c4c",
"X	c #ffa3a3",
"o	c #ff9797",
"O	c #ff4c4c",
"+	c #e24c4c",
"@	c #c04c4c",
"                ",
"    .      .    ",
"   .X.    .X.   ",
"  .Xoo.  .XoO.  ",
" .XoOOo..XoO+@. ",
"  .oOOOOOoO+@.  ",
"   .oOOOOO+@.   ",
"    .OOOOOO.    ",
"    .OOOOOO.    ",
"   .XoOOOOO+.   ",
"  .XoO+OOOOO+.  ",
" .XoO+@..+OO+@. ",
"  .O+@.  .++@.  ",
"   .@.    .@.   ",
"    .      .    ",
"                "};
