/* XPM */
static char * start_xpm[] = {
"16 16 3 1",
" 	c none",
".	c #009900",
"X	c #008000",
"                ",
"                ",
"     .          ",
"     ..         ",
"    X...        ",
"    X....       ",
"    X.....      ",
"    X......     ",
"    X.....X     ",
"    X....X      ",
"    X...X       ",
"    X..X        ",
"    X.X         ",
"    XX          ",
"                ",
"                "};
