/* XPM */
static char * stop_xpm[] = {
"16 16 7 1",
" 	c none",
".	c #6666ff",
"X	c Blue",
"o	c #000080",
"O	c #808080",
"+	c #666699",
"@	c #c0c0c0",
"                ",
"  .Xo .Xo       ",
"  XXo XXo       ",
"  XXo XXo       ",
" OXXo+XXoOO+++  ",
" OXXo XXo    +  ",
" OXXo XXo@O O+  ",
" OXXo XXo    +  ",
" O OO O O@O O+  ",
" O           +  ",
" O OO O O@O O+  ",
" O           +  ",
" O OO O O@O O+  ",
" O           +  ",
" O++++++++++++  ",
"                "};
