/* XPM */
static char * bigimg07_xpm[] = {
"24 24 8 1",
" 	c none",
".	c #3366ff",
"X	c #ccffff",
"o	c #99ffff",
"O	c #33ccff",
"+	c #00ccff",
"@	c #0099ff",
"#	c Black",
"                        ",
"                        ",
"                        ",
"                        ",
"                        ",
"        .......         ",
"        .XoO+@#         ",
"        .XoO+@#         ",
"   ......XoO+@#....#    ",
"    .XXXXoo++@@@@.#     ",
"     .oooo+++@@@.#      ",
"      .@+++++@@.#       ",
"       .@+++@@.#        ",
"        #@+@@.#         ",
"         #@@.#          ",
"          #.#           ",
"           #            ",
"                        ",
"                        ",
"                        ",
"                        ",
"                        ",
"                        ",
"                        "};
