/* XPM */
static char * bigimg03_xpm[] = {
"24 24 4 1",
" 	c none",
".	c Black",
"X	c Gray100",
"o	c #ffffcc",
"                        ",
"                        ",
"                        ",
"    ...........         ",
"    .XXoXoXoX.X.        ",
"    .XoXoXoXo.XX.       ",
"    .oXoXoXoX.XXX.      ",
"    .XoXoXoXo.XXXX.     ",
"    .oXoXoXoX......     ",
"    .XoXoXoXo     .     ",
"    .oXoXoXoXoXoX .     ",
"    .XoXoXoXoXoXo .     ",
"    .oXoXoXoXoXoX .     ",
"    .XoXoXoXoXoXo .     ",
"    .oXoXoXoXoXoX .     ",
"    .XoXoXoXoXoXo .     ",
"    .oXoXoXoXoXoX .     ",
"    .XoXoXoXoXoXo .     ",
"    .oXoXoXoXoXoX .     ",
"    .             .     ",
"    ...............     ",
"                        ",
"                        ",
"                        "};
