/* XPM */
static char * bigimg05_xpm[] = {
"24 24 15 1",
" 	c none",
".	c #669966",
"X	c #6666ff",
"o	c Gray100",
"O	c #ffffcc",
"+	c #99ffff",
"@	c #003300",
"#	c #cc9999",
"$	c #66ffff",
"%	c #868686",
"&	c #663333",
"*	c Black",
"=	c #ffff99",
"-	c Blue",
";	c #000080",
"                        ",
"                        ",
"                        ",
"            ...... XX   ",
"           .ooOOOO.++   ",
"          .O@OO####$$   ",
"   %%%%%%.O@#&###..XX   ",
"   %oooo.O@#&#&...*XX   ",
"   %ooo.O@#@#&#******   ",
"   %ooo@@#o#@#*#=*      ",
"   %ooo##=o=#*#=o*      ",
"   %oooo=o=o=o=o=*      ",
"   %ooXXoXXXXXXXo*      ",
"   %o=oo=o=o=o=o=*      ",
"   %oo--o-------o*      ",
"   %oooo=o=o=o=o=*      ",
"   %o=--o-------o*      ",
"   %oooo=o=o=o=o=*      ",
"   %oo;;o;;;;;;;o*      ",
"   %=o=o=o=o=o=o=*      ",
"   ***************      ",
"                        ",
"                        ",
"                        "};
