/* XPM */
static char * bigimg01_xpm[] = {
"24 24 7 1",
" 	c none",
".	c #009900",
"X	c #00cc00",
"o	c #006600",
"O	c #008000",
"+	c Gray100",
"@	c #003300",
"                        ",
"                        ",
"                        ",
"         ......         ",
"       .X........       ",
"      .X.oo.....OO      ",
"     .X..o+o.....OO     ",
"    .X...o++o.....OO    ",
"    .....o+++o.....O    ",
"   ......o++++o....OO   ",
"   ......o+++++o...OO   ",
"   ......o++++++o..OO   ",
"   ......o+++++o...OO   ",
"   ......o++++o....OO   ",
"   O.....o+++o.....OO   ",
"    O....o++o.....OO    ",
"    O....o+o......OO    ",
"     O...@@......OO     ",
"      OO.......OOO      ",
"       OOOOOOOOOO       ",
"         OOOOOO         ",
"                        ",
"                        ",
"                        "};
