/* XPM */
static char * bigimg02_xpm[] = {
"24 24 5 1",
" 	c none",
".	c #000080",
"X	c Gray100",
"o	c #808080",
"O	c #ece9d8",
"                        ",
"                        ",
"        ......          ",
"      ..........        ",
"     ............       ",
"    ..............      ",
"   ................     ",
"   ....XXX.XXX.....o    ",
"  .....XOO.XOO......    ",
"  .....XOO.XOO......o   ",
"  .....XOO.XOO......o   ",
"  .....XOO.XOO......o   ",
"  .....XOO.XOO......o   ",
"  .....XOO.XOO......o   ",
"   ................oo   ",
"   ................o    ",
"    ..............oo    ",
"     ............oo     ",
"      ..........oo      ",
"       o......ooo       ",
"         oooooo         ",
"                        ",
"                        ",
"                        "};
